<?xml version="1.0" encoding="UTF-8"?>
<svg width="7px" height="11px" viewBox="0 0 7 11" version="1.1" xmlns="http://www.w3.org/2000/svg" xmlns:xlink="http://www.w3.org/1999/xlink">
    <!-- Generator: Sketch 52.2 (67145) - http://www.bohemiancoding.com/sketch -->
    <title>arrow left</title>
    <desc>Created with Sketch.</desc>
    <g id="Page-1" stroke="none" stroke-width="1" fill="none" fill-rule="evenodd">
        <g id="05-IDSPL-Portfolio-Detail" transform="translate(-171.000000, -1021.000000)" fill="#32312F">
            <g id="Group-5" transform="translate(170.000000, 982.000000)">
                <g id="Group-3" transform="translate(0.000000, 38.000000)">
                    <g id="Group-4" transform="translate(1.000000, 0.000000)">
                        <path d="M5.98396483,1.20633213 C5.85200739,1.0742278 5.6729465,1 5.48622661,1 C5.29950671,1 5.12044583,1.0742278 4.98848839,1.20633213 L0.206332125,5.9849708 C0.0742277982,6.11692824 2.48689958e-13,6.29598913 2.48689958e-13,6.48270902 C2.48689958e-13,6.66942892 0.0742277982,6.8484898 0.206332125,6.98044724 L4.98848839,11.7590859 C5.16472924,11.9442575 5.42754639,12.0192558 5.67496964,11.9549824 C5.92239289,11.8907089 6.11548032,11.6972798 6.17931611,11.4497432 C6.2431519,11.2022067 6.16768894,10.9395226 5.98220604,10.7636095 L1.69778799,6.48270902 L5.98220604,2.20180857 C6.11454377,2.07008467 6.18908812,1.89115488 6.18941801,1.70443489 C6.18974791,1.5177149 6.11583628,1.33852282 5.98396483,1.20633213 Z" id="arrow-left"></path>
                    </g>
                </g>
            </g>
        </g>
    </g>
</svg>