<svg xmlns="http://www.w3.org/2000/svg" width="70" height="70" viewBox="0 0 70 70">
    <g fill="none" fill-rule="evenodd">
        <circle cx="35" cy="35" r="35" fill="#F6F5F2" fill-rule="nonzero"/>
        <g fill="#5D626A">
            <path fill-rule="nonzero" d="M47.278 21.465H23.546c-2.225 0-4.605 1.211-4.605 4.605v15.91c0 3.394 2.38 4.605 4.605 4.605h8.784v2.933h-1.46a.708.708 0 0 0 0 1.417h9.352a.708.708 0 0 0 0-1.417h-1.729v-2.933h8.785c3.393 0 4.604-2.38 4.604-4.604V26.07c0-3.394-2.38-4.605-4.604-4.605zM37.077 49.518h-3.33v-2.933h3.33v2.933zm13.389-7.537c0 .956-.312 3.187-3.188 3.187H23.546c-.957 0-3.188-.311-3.188-3.187v-1.014h30.108v1.014zm0-2.423H20.358v-13.46c0-2.876 2.231-3.188 3.188-3.188h23.732c.956 0 3.188.312 3.188 3.188v13.46z"/>
            <path d="M46.896 24.809a.708.708 0 0 0-.992.14v.001h.035l-5.285 7.084-2.48-3.223a.708.708 0 0 0-1.09-.035l-4.038 4.59-2.961-5.058a.709.709 0 0 0-.603-.347.708.708 0 0 0-.609.34L23.985 36.2a.708.708 0 1 0 1.204.708l4.25-6.928 2.834 4.881a.708.708 0 0 0 1.141.113l4.123-4.611 2.529 3.287a.822.822 0 0 0 .567.276.708.708 0 0 0 .56-.283l5.844-7.843a.708.708 0 0 0-.141-.991z"/>
        </g>
    </g>
</svg>
