<svg xmlns="http://www.w3.org/2000/svg" width="18" height="14" viewBox="0 0 18 14">
    <g fill="#FFB500" fill-rule="evenodd">
        <path fill-rule="nonzero" d="M17.1.026H.9a.9.9 0 0 0-.9.9v12a.9.9 0 0 0 .9.9h16.2a.9.9 0 0 0 .9-.9v-12a.9.9 0 0 0-.9-.9zm.3 12.9a.3.3 0 0 1-.3.3H.9a.3.3 0 0 1-.3-.3v-12a.3.3 0 0 1 .3-.3h16.2a.3.3 0 0 1 .3.3v12z"/>
        <path d="M16.526 1.227a.3.3 0 0 0-.219.069L9.387 7.11a.6.6 0 0 1-.773 0L1.693 1.296a.3.3 0 0 0-.386.46l6.921 5.813a1.198 1.198 0 0 0 1.544 0l6.92-5.813a.3.3 0 0 0-.166-.53zM5.77 7.528a.3.3 0 0 0-.29.093l-4.2 4.5a.3.3 0 1 0 .44.41l4.2-4.5a.3.3 0 0 0-.15-.503zM12.52 7.621a.3.3 0 1 0-.44.41l4.2 4.5a.3.3 0 0 0 .44-.41l-4.2-4.5z"/>
    </g>
</svg>
