<svg xmlns="http://www.w3.org/2000/svg" width="26" height="26" viewBox="0 0 26 26">
    <g fill="none" fill-rule="evenodd">
        <path fill="#0E76A8" d="M12.97 0c7.163 0 12.97 5.807 12.97 12.97 0 7.162-5.807 12.97-12.97 12.97C5.806 25.94 0 20.131 0 12.97 0 5.807 5.806 0 12.97 0z"/>
        <path fill="#FFF" fill-rule="nonzero" d="M7.308 17.82h2.429V9.726H7.308v8.094zm9.462-8.375c-1.179 0-2.233.43-2.982 1.38V9.7h-2.437v8.121h2.437V13.43c0-.929.85-1.834 1.916-1.834 1.065 0 1.328.905 1.328 1.81v4.415h2.428v-4.595c0-3.191-1.51-3.78-2.69-3.78zM8.51 8.917a1.216 1.216 0 1 0 0-2.433 1.216 1.216 0 0 0 0 2.433z"/>
    </g>
</svg>
