<?xml version="1.0" encoding="UTF-8"?>
<svg width="70px" height="70px" viewBox="0 0 70 70" version="1.1" xmlns="http://www.w3.org/2000/svg" xmlns:xlink="http://www.w3.org/1999/xlink">
    <!-- Generator: Sketch 52.2 (67145) - http://www.bohemiancoding.com/sketch -->
    <title>rural-icon</title>
    <desc>Created with Sketch.</desc>
    <g id="Page-1" stroke="none" stroke-width="1" fill="none" fill-rule="evenodd">
        <g id="01-IDSPL-home" transform="translate(-811.000000, -915.000000)">
            <g id="services" transform="translate(170.000000, 844.000000)">
                <g id="Group-5-Copy-2" transform="translate(640.000000, 71.000000)">
                    <g id="rural-icon" transform="translate(1.000000, 0.000000)">
                        <circle id="Oval" fill="#F6F5F2" fill-rule="nonzero" cx="35" cy="35" r="35"></circle>
                        <g id="tent" transform="translate(19.000000, 19.000000)" fill="#4B525C">
                            <polygon id="Path" points="27.1613071 2.12940873 28.2235478 2.12940873 28.2235478 3.19164939 27.1613071 3.19164939"></polygon>
                            <polygon id="Path" points="27.1613071 4.25389006 28.2235478 4.25389006 28.2235478 5.31613072 27.1613071 5.31613072"></polygon>
                            <polygon id="Path" points="26.0990664 3.19164939 27.1613071 3.19164939 27.1613071 4.25389006 26.0990664 4.25389006"></polygon>
                            <polygon id="Path" points="28.2235478 3.19164939 29.2857884 3.19164939 29.2857884 4.25389006 28.2235478 4.25389006"></polygon>
                            <polygon id="Path" points="22.3812241 6.37837139 23.4434648 6.37837139 23.4434648 7.44061205 22.3812241 7.44061205"></polygon>
                            <polygon id="Path" points="22.3812241 8.50285271 23.4434648 8.50285271 23.4434648 9.56509338 22.3812241 9.56509338"></polygon>
                            <polygon id="Path" points="21.3189834 7.44061205 22.3812241 7.44061205 22.3812241 8.50285271 21.3189834 8.50285271"></polygon>
                            <polygon id="Path" points="23.4434648 7.44061205 24.5057054 7.44061205 24.5057054 8.50285271 23.4434648 8.50285271"></polygon>
                            <polygon id="Path" points="29.8169087 9.03397305 30.8791494 9.03397305 30.8791494 10.0962137 29.8169087 10.0962137"></polygon>
                            <polygon id="Path" points="29.8169087 11.1584544 30.8791494 11.1584544 30.8791494 12.220695 29.8169087 12.220695"></polygon>
                            <polygon id="Path" points="28.7546681 10.0962137 29.8169087 10.0962137 29.8169087 11.1584544 28.7546681 11.1584544"></polygon>
                            <polygon id="Path" points="30.8791494 10.0962137 31.9413901 10.0962137 31.9413901 11.1584544 30.8791494 11.1584544"></polygon>
                            <path d="M31.4102697,30.8099067 L27.5171161,30.8099067 L16.598029,4.29149378 L18.593361,0.8016079 C18.7398859,0.546939817 18.6524896,0.221732382 18.3978216,0.0749481162 C18.1431535,-0.071836083 17.817946,0.0158194855 17.6714211,0.270487568 L16.0077801,3.18360996 L14.3443983,0.270487568 C14.1952801,0.0233402158 13.876556,-0.0593879502 13.6260374,0.0835061909 C13.375778,0.226659718 13.2852697,0.543568465 13.4224585,0.797199137 L15.4177905,4.28941909 L4.49844395,30.8099067 L0.60529049,30.8099067 C0.311981344,30.8099067 0.0741701577,31.0477178 0.0741701577,31.341027 C0.0741701577,31.6343361 0.311981344,31.8721473 0.60529049,31.8721473 L31.4102697,31.8721473 C31.7035788,31.8721473 31.9413901,31.6343361 31.9413901,31.341027 C31.9413901,31.0477178 31.7035788,30.8099067 31.4102697,30.8099067 Z M18.5853216,11.9081951 L16.1602697,11.1807572 C16.060944,11.1509336 15.9548755,11.1509336 15.8552904,11.1807572 L13.4302386,11.9081951 L16.0077801,5.64859957 L18.5853216,11.9081951 Z M17.0923237,21.6146265 L21.7072096,26.6138486 L19.4001556,30.0752074 L17.0923237,21.6146265 Z M12.6156639,30.0752074 L10.3083506,26.6138486 L14.9232365,21.6146265 L12.6156639,30.0752074 Z M13.5168568,30.8099067 L16.0077801,21.6745332 L18.4987033,30.8099067 L13.5168568,30.8099067 Z M20.186722,30.8099067 L22.8231328,26.8555498 C22.9587655,26.651193 22.9369813,26.3807054 22.7699689,26.2007262 L16.4045643,19.3036826 C16.4045643,19.3036826 16.3747406,19.2798237 16.3641079,19.2702282 C16.342583,19.2505187 16.3192428,19.2328838 16.2946058,19.2170643 C16.283973,19.2100622 16.2326245,19.1825726 16.219139,19.1771266 C16.1781639,19.1605291 16.1361514,19.1465249 16.093361,19.1353734 C16.0796162,19.1304461 16.0233402,19.1252594 16.0077801,19.1252594 C15.9924793,19.1252594 15.935166,19.1304461 15.9201245,19.1330394 C15.8786307,19.1444502 15.837915,19.1579357 15.7979772,19.1740145 C15.7837137,19.1799793 15.7315871,19.2079875 15.7209544,19.2149896 C15.6960581,19.2313278 15.6120332,19.3021265 15.6120332,19.3021265 L9.24455396,26.2007262 C9.07780083,26.3807054 9.05575728,26.651193 9.19139001,26.8555498 L11.8290975,30.8099067 L5.6473029,30.8099067 L6.08480292,29.747666 L6.97873447,29.747666 C7.27204355,29.747666 7.5098548,29.5098548 7.5098548,29.2165457 C7.5098548,28.9232365 7.27204355,28.6854253 6.97873447,28.6854253 L6.52204355,28.6854253 L12.9092323,13.1734958 L16.0077801,12.2440353 L19.1063278,13.1734958 L25.2748963,28.154305 L23.9745851,28.154305 C23.681276,28.154305 23.4434648,28.3921162 23.4434648,28.6854253 C23.4434648,28.9787345 23.681276,29.2165457 23.9745851,29.2165457 L25.5679461,29.2165457 C25.6135892,29.2134336 25.658195,29.2043568 25.7012448,29.1893153 L26.3685166,30.8099067 L20.186722,30.8099067 Z" id="Shape" fill-rule="nonzero"></path>
                            <path d="M13.5077801,18.2186203 L11.3832988,20.3431017 C11.2453319,20.4764004 11.189834,20.6737552 11.2385892,20.8594398 C11.2870851,21.0451245 11.4320539,21.1903527 11.6177386,21.2388485 C11.8036826,21.2873444 12.0010373,21.2321058 12.1343361,21.094139 L14.2588175,18.9696577 C14.4600623,18.7611515 14.4572096,18.4299792 14.252334,18.2251037 C14.0474585,18.0202282 13.7162863,18.0173755 13.5077801,18.2186203 Z" id="Path"></path>
                            <path d="M18.5077801,18.2186203 C18.2995332,18.0173755 17.9681016,18.0202282 17.7632262,18.2251037 C17.5583506,18.4299792 17.555498,18.7611515 17.7567428,18.9696577 L19.8812241,21.094139 C20.0897303,21.2953838 20.4209025,21.2925311 20.625778,21.0876556 C20.8306535,20.8827801 20.8335063,20.5513486 20.6322614,20.3431017 L18.5077801,18.2186203 Z" id="Path"></path>
                            <path d="M5.38537348,10.627334 C7.77878632,10.6224066 9.87448133,9.01996886 10.5059647,6.71135894 C10.560944,6.5093361 10.4919606,6.29382778 10.3301348,6.1610477 C10.1680498,6.02826762 9.94320538,6.00311203 9.75596475,6.09673235 C9.38900415,6.28215768 8.98340249,6.37837139 8.57209547,6.37837139 C7.34284229,6.37551867 6.27619293,5.52930496 5.99351661,4.33272823 C5.71109962,3.13641082 6.28682569,1.90248963 7.38511409,1.35010377 C7.57209547,1.25622407 7.68646267,1.06146264 7.67738589,0.852437776 C7.66856843,0.643412846 7.53760372,0.459284249 7.34310168,0.382002058 C5.35477178,-0.410269743 3.08506224,0.0687240498 1.5863589,1.59647303 C0.087396249,3.12448133 -0.348029079,5.40274895 0.482105826,7.37551867 C1.31198134,9.34854772 3.2450726,10.6304461 5.38537348,10.627334 Z M5.38537348,1.06716807 C5.56898337,1.06690868 5.75233401,1.07883817 5.9341286,1.1032158 C4.8762967,2.16856843 4.56301869,3.76556017 5.14004149,5.15145228 C5.7170643,6.5373444 7.07079874,7.44035266 8.57209547,7.44061205 C8.74221995,7.44061205 8.91208505,7.42894194 9.08039422,7.40612037 C8.06353733,9.20617222 5.89834025,10.0129668 3.95124481,9.31716807 C2.0044087,8.62162861 0.840767602,6.62525935 1.19476143,4.58843359 C1.54901451,2.55134858 3.31794602,1.06483399 5.38537348,1.06716807 Z" id="Shape" fill-rule="nonzero"></path>
                        </g>
                    </g>
                </g>
            </g>
        </g>
    </g>
</svg>