<svg xmlns="http://www.w3.org/2000/svg" width="80" height="80" viewBox="0 0 80 80">
    <g fill="none" fill-rule="nonzero">
        <circle cx="40" cy="40" r="40" fill="#FFB500"/>
        <path fill="#FFF" d="M59.833 38.833h-1.26a8.157 8.157 0 0 0-16.205.481 4.498 4.498 0 0 1-4.736 0 8.158 8.158 0 0 0-16.205-.48h-1.26a1.167 1.167 0 0 0 0 2.333h1.26a8.157 8.157 0 0 0 16.032.635 6.426 6.426 0 0 0 5.082 0 8.157 8.157 0 0 0 16.032-.635h1.26a1.167 1.167 0 0 0 0-2.334zm-30.333 7A5.834 5.834 0 1 1 35.333 40a5.84 5.84 0 0 1-5.833 5.833zm21 0A5.834 5.834 0 1 1 56.333 40a5.84 5.84 0 0 1-5.833 5.833z"/>
    </g>
</svg>
