<svg xmlns="http://www.w3.org/2000/svg" width="36" height="36" viewBox="0 0 36 36">
    <g fill="none" fill-rule="nonzero">
        <circle cx="18" cy="18" r="18" fill="#FEF2D5"/>
        <g fill="#FFB500" stroke="#FFB500">
            <path d="M18.02 12.308a2.516 2.516 0 0 0-2.512 2.513 2.516 2.516 0 0 0 2.512 2.512 2.516 2.516 0 0 0 2.513-2.512 2.516 2.516 0 0 0-2.513-2.513zm0 4.307c-.99 0-1.794-.805-1.794-1.794 0-.99.805-1.795 1.794-1.795.99 0 1.795.805 1.795 1.795 0 .99-.805 1.794-1.795 1.794z"/>
            <path d="M22.825 10.016A6.84 6.84 0 0 0 17.957 8a6.839 6.839 0 0 0-4.868 2.016c-2.406 2.406-2.705 6.933-.647 9.675l5.515 7.965 5.507-7.953c2.066-2.754 1.767-7.28-.64-9.687zm.057 9.267l-4.925 7.112-4.933-7.123c-1.866-2.489-1.599-6.577.573-8.748a6.125 6.125 0 0 1 4.36-1.806c1.647 0 3.195.641 4.36 1.806 2.172 2.171 2.44 6.26.565 8.759z"/>
        </g>
    </g>
</svg>
