<?xml version="1.0" encoding="UTF-8"?>
<svg width="70px" height="70px" viewBox="0 0 70 70" version="1.1" xmlns="http://www.w3.org/2000/svg" xmlns:xlink="http://www.w3.org/1999/xlink">
    <!-- Generator: Sketch 52.2 (67145) - http://www.bohemiancoding.com/sketch -->
    <title>building-icon</title>
    <desc>Created with Sketch.</desc>
    <g id="Page-1" stroke="none" stroke-width="1" fill="none" fill-rule="evenodd">
        <g id="01-IDSPL-home" transform="translate(-171.000000, -915.000000)">
            <g id="services" transform="translate(170.000000, 844.000000)">
                <g id="Group-5" transform="translate(0.000000, 71.000000)">
                    <g id="building-icon" transform="translate(1.000000, 0.000000)">
                        <circle id="Oval" fill="#F6F5F2" fill-rule="nonzero" cx="35" cy="35" r="35"></circle>
                        <g id="building" transform="translate(18.000000, 18.000000)" fill="#535962">
                            <path d="M24.3666445,31.7333555 L8.5,31.7333555 C8.18722656,31.7333555 7.93335547,31.9872266 7.93335547,32.3 L7.93335547,33.4333555 C7.93335547,33.7461289 8.18722656,34 8.5,34 C8.81277344,34 9.06664453,33.7461289 9.06664453,33.4333555 L9.06664453,32.8667109 L24.3666445,32.8667109 C24.679418,32.8667109 24.9332891,32.6128398 24.9332891,32.3000664 C24.9332891,31.987293 24.6794844,31.7333555 24.3666445,31.7333555 Z" id="Path"></path>
                            <path d="M12.4666445,14.1666445 C12.4666445,14.479418 12.7205156,14.7332891 13.0332891,14.7332891 L15.3,14.7332891 C15.6127734,14.7332891 15.8666445,14.479418 15.8666445,14.1666445 L15.8666445,10.7666445 C15.8666445,10.4538711 15.6127734,10.2 15.3,10.2 L13.0333555,10.2 C12.720582,10.2 12.4667109,10.4538711 12.4667109,10.7666445 L12.4667109,14.1666445 L12.4666445,14.1666445 Z M13.6,11.3333555 L14.7333555,11.3333555 L14.7333555,13.6 L13.6,13.6 L13.6,11.3333555 Z" id="Shape" fill-rule="nonzero"></path>
                            <path d="M7.36664453,6.8 L0.566644531,6.8 C0.253871094,6.8 0,7.05387109 0,7.36664453 L0,18.7 C0,19.0127734 0.253871094,19.2666445 0.566644531,19.2666445 C0.879417969,19.2666445 1.13328906,19.0127734 1.13328906,18.7 L1.13328906,7.93335547 L7.36664453,7.93335547 C7.67941797,7.93335547 7.93328906,7.67948437 7.93328906,7.36671094 C7.93328906,7.0539375 7.67948438,6.8 7.36664453,6.8 Z" id="Path"></path>
                            <path d="M27.2,27.7666445 C27.2,28.079418 27.4538711,28.3332891 27.7666445,28.3332891 L30.0332891,28.3332891 C30.3460625,28.3332891 30.5999336,28.079418 30.5999336,27.7666445 L30.5999336,24.3666445 C30.5999336,24.0538711 30.3460625,23.8 30.0332891,23.8 L27.7666445,23.8 C27.4538711,23.8 27.2,24.0538711 27.2,24.3666445 L27.2,27.7666445 Z M28.3333555,24.9333555 L29.4667109,24.9333555 L29.4667109,27.2 L28.3333555,27.2 L28.3333555,24.9333555 Z" id="Shape" fill-rule="nonzero"></path>
                            <path d="M2.83335547,20.4 C0.0322734375,20.4 0,27.693 0,27.7666445 C0,29.1351445 0.975242187,30.2792578 2.26664453,30.5427578 L2.26664453,33.4333555 C2.26664453,33.7461289 2.52051562,34 2.83328906,34 C3.1460625,34 3.39993359,33.7461289 3.39993359,33.4333555 L3.39993359,30.5427578 C4.69133594,30.2792578 5.66657813,29.1351445 5.66657813,27.7666445 C5.66664453,27.693 5.63437109,20.4 2.83335547,20.4 Z M2.83335547,29.4666445 C1.89609766,29.4666445 1.13335547,28.7039023 1.13335547,27.7666445 C1.13335547,24.9435156 1.89158203,21.5332891 2.83335547,21.5332891 C3.77512891,21.5332891 4.53335547,24.9435156 4.53335547,27.7666445 C4.53335547,28.7039023 3.77061328,29.4666445 2.83335547,29.4666445 Z" id="Shape" fill-rule="nonzero"></path>
                            <path d="M6.23335547,17 L3.96664453,17 C3.65387109,17 3.4,17.2538711 3.4,17.5666445 L3.4,18.7 C3.4,19.0127734 3.65387109,19.2666445 3.96664453,19.2666445 C4.27941797,19.2666445 4.53328906,19.0127734 4.53328906,18.7 L4.53328906,18.1333555 L5.66664453,18.1333555 L5.66664453,20.9667109 C5.66664453,21.2794844 5.92051563,21.5333555 6.23328906,21.5333555 C6.5460625,21.5333555 6.79993359,21.2794844 6.79993359,20.9667109 L6.79993359,17.5667109 C6.8,17.2538711 6.54612891,17 6.23335547,17 Z" id="Path"></path>
                            <path d="M27.7666445,14.7333555 L30.0332891,14.7333555 C30.3460625,14.7333555 30.5999336,14.4794844 30.5999336,14.1667109 L30.5999336,10.7667109 C30.5999336,10.4539375 30.3460625,10.2000664 30.0332891,10.2000664 L27.7666445,10.2000664 C27.4538711,10.2000664 27.2,10.4539375 27.2,10.7667109 L27.2,14.1667109 C27.2,14.4794844 27.4538711,14.7333555 27.7666445,14.7333555 Z M28.3333555,11.3333555 L29.4667109,11.3333555 L29.4667109,13.6 L28.3333555,13.6 L28.3333555,11.3333555 Z" id="Shape" fill-rule="nonzero"></path>
                            <path d="M6.23335547,10.2 L3.96664453,10.2 C3.65387109,10.2 3.4,10.4538711 3.4,10.7666445 L3.4,14.1666445 C3.4,14.479418 3.65387109,14.7332891 3.96664453,14.7332891 L6.23328906,14.7332891 C6.5460625,14.7332891 6.79993359,14.479418 6.79993359,14.1666445 L6.79993359,10.7666445 C6.8,10.4538711 6.54612891,10.2 6.23335547,10.2 Z M5.66664453,13.6 L4.53335547,13.6 L4.53335547,11.3333555 L5.66671094,11.3333555 L5.66671094,13.6 L5.66664453,13.6 Z" id="Shape" fill-rule="nonzero"></path>
                            <path d="M18.1333555,14.1666445 C18.1333555,14.479418 18.3872266,14.7332891 18.7,14.7332891 L20.9666445,14.7332891 C21.279418,14.7332891 21.5332891,14.479418 21.5332891,14.1666445 L21.5332891,10.7666445 C21.5332891,10.4538711 21.279418,10.2 20.9666445,10.2 L18.7,10.2 C18.3872266,10.2 18.1333555,10.4538711 18.1333555,10.7666445 L18.1333555,14.1666445 Z M19.2666445,11.3333555 L20.4,11.3333555 L20.4,13.6 L19.2666445,13.6 L19.2666445,11.3333555 Z" id="Shape" fill-rule="nonzero"></path>
                            <path d="M33.4333555,6.8 L26.6333555,6.8 C26.320582,6.8 26.0667109,7.05387109 26.0667109,7.36664453 C26.0667109,7.67941797 26.320582,7.93328906 26.6333555,7.93328906 L32.8667109,7.93328906 L32.8667109,30.7042578 C32.6888086,30.6407734 32.500082,30.6 32.3000664,30.6 C32.2020508,30.6 32.1045664,30.6085 32.0088086,30.6255 C31.6178086,29.9211289 30.873793,29.4666445 30.0334219,29.4666445 C29.1930508,29.4666445 28.4490352,29.9211289 28.0580352,30.6255 C27.9622773,30.6085 27.864793,30.6 27.7667773,30.6 C26.8295195,30.6 26.0667773,31.3627422 26.0667773,32.3 C26.0667773,33.2372578 26.8295195,34 27.7667773,34 L32.3,34 C33.2372578,34 34,33.2372578 34,32.3 L34,7.36664453 C34,7.05387109 33.7461289,6.8 33.4333555,6.8 Z M32.3,32.8666445 L27.7666445,32.8666445 C27.4544023,32.8666445 27.2,32.6122422 27.2,32.3 C27.2,31.9877578 27.4544023,31.7333555 27.7666445,31.7333555 C27.875418,31.7333555 27.9785469,31.7645 28.0737734,31.8257266 C28.2290312,31.9254688 28.4228711,31.9435977 28.594,31.8744687 C28.7651289,31.8053398 28.8915,31.6568555 28.9328711,31.4772266 C29.0524687,30.9609844 29.5052266,30.6 30.0333555,30.6 C30.5614844,30.6 31.0142422,30.9609844 31.1338398,31.4772266 C31.1752109,31.6568555 31.301582,31.8053398 31.4727109,31.8744687 C31.6433086,31.9435977 31.8376133,31.9254687 31.9929375,31.8257266 C32.3618242,31.5877266 32.8667109,31.8789844 32.8667109,32.3 C32.8666445,32.6122422 32.6122422,32.8666445 32.3,32.8666445 Z" id="Shape" fill-rule="nonzero"></path>
                            <path d="M18.7,7.93335547 L20.9666445,7.93335547 C21.279418,7.93335547 21.5332891,7.67948437 21.5332891,7.36671094 L21.5332891,3.96671094 C21.5332891,3.6539375 21.279418,3.40006641 20.9666445,3.40006641 L18.7,3.40006641 C18.3872266,3.40006641 18.1333555,3.6539375 18.1333555,3.96671094 L18.1333555,7.36671094 C18.1333555,7.67948437 18.3872266,7.93335547 18.7,7.93335547 Z M19.2666445,4.53335547 L20.4,4.53335547 L20.4,6.8 L19.2666445,6.8 L19.2666445,4.53335547 Z" id="Shape" fill-rule="nonzero"></path>
                            <path d="M18.1333555,20.9666445 C18.1333555,21.279418 18.3872266,21.5332891 18.7,21.5332891 L20.9666445,21.5332891 C21.279418,21.5332891 21.5332891,21.279418 21.5332891,20.9666445 L21.5332891,17.5666445 C21.5332891,17.2538711 21.279418,17 20.9666445,17 L18.7,17 C18.3872266,17 18.1333555,17.2538711 18.1333555,17.5666445 L18.1333555,20.9666445 Z M19.2666445,18.1333555 L20.4,18.1333555 L20.4,20.4 L19.2666445,20.4 L19.2666445,18.1333555 Z" id="Shape" fill-rule="nonzero"></path>
                            <path d="M13.0333555,7.93335547 L15.3,7.93335547 C15.6127734,7.93335547 15.8666445,7.67948437 15.8666445,7.36671094 L15.8666445,3.96671094 C15.8666445,3.6539375 15.6127734,3.40006641 15.3,3.40006641 L13.0333555,3.40006641 C12.720582,3.40006641 12.4667109,3.6539375 12.4667109,3.96671094 L12.4667109,7.36671094 C12.4666445,7.67948437 12.7205156,7.93335547 13.0333555,7.93335547 Z M13.6,4.53335547 L14.7333555,4.53335547 L14.7333555,6.8 L13.6,6.8 L13.6,4.53335547 Z" id="Shape" fill-rule="nonzero"></path>
                            <path d="M16.5976445,27.3643555 C16.4956445,27.472 16.4332891,27.6193555 16.4332891,27.7667109 C16.4332891,27.9140664 16.4956445,28.0613555 16.5976445,28.1690664 C16.7052891,28.2710664 16.8526445,28.3334219 17,28.3334219 C17.1473555,28.3334219 17.2946445,28.2710664 17.4023555,28.1690664 C17.5043555,28.0614219 17.5667109,27.9140664 17.5667109,27.7667109 C17.5667109,27.6193555 17.5043555,27.4720664 17.4023555,27.3643555 C17.187,27.1546445 16.813,27.1546445 16.5976445,27.3643555 Z" id="Path"></path>
                            <path d="M12.4666445,20.9666445 C12.4666445,21.279418 12.7205156,21.5332891 13.0332891,21.5332891 L15.3,21.5332891 C15.6127734,21.5332891 15.8666445,21.279418 15.8666445,20.9666445 L15.8666445,17.5666445 C15.8666445,17.2538711 15.6127734,17 15.3,17 L13.0333555,17 C12.720582,17 12.4667109,17.2538711 12.4667109,17.5666445 L12.4667109,20.9666445 L12.4666445,20.9666445 Z M13.6,18.1333555 L14.7333555,18.1333555 L14.7333555,20.4 L13.6,20.4 L13.6,18.1333555 Z" id="Shape" fill-rule="nonzero"></path>
                            <path d="M11.3333555,24.3666445 C11.3333555,24.679418 11.5872266,24.9332891 11.9,24.9332891 L13.6,24.9332891 L13.6,30.0332891 C13.6,30.3460625 13.8538711,30.5999336 14.1666445,30.5999336 C14.479418,30.5999336 14.7332891,30.3460625 14.7332891,30.0332891 L14.7332891,24.9332891 L19.2666445,24.9332891 L19.2666445,30.0332891 C19.2666445,30.3460625 19.5205156,30.5999336 19.8332891,30.5999336 C20.1460625,30.5999336 20.3999336,30.3460625 20.3999336,30.0332891 L20.3999336,24.9332891 L22.0999336,24.9332891 C22.412707,24.9332891 22.6665781,24.679418 22.6665781,24.3666445 C22.6665781,24.0538711 22.412707,23.8 22.0999336,23.8 L11.9,23.8 C11.5872266,23.8 11.3333555,24.0538711 11.3333555,24.3666445 Z" id="Path"></path>
                            <path d="M27.2,20.9666445 C27.2,21.279418 27.4538711,21.5332891 27.7666445,21.5332891 L30.0332891,21.5332891 C30.3460625,21.5332891 30.5999336,21.279418 30.5999336,20.9666445 L30.5999336,17.5666445 C30.5999336,17.2538711 30.3460625,17 30.0332891,17 L27.7666445,17 C27.4538711,17 27.2,17.2538711 27.2,17.5666445 L27.2,20.9666445 Z M28.3333555,18.1333555 L29.4667109,18.1333555 L29.4667109,20.4 L28.3333555,20.4 L28.3333555,18.1333555 Z" id="Shape" fill-rule="nonzero"></path>
                            <path d="M24.3666445,0 L9.63335547,0 C9.32058203,0 9.06671094,0.253871094 9.06671094,0.566644531 L9.06671094,30.0332891 C9.06671094,30.3460625 9.32058203,30.5999336 9.63335547,30.5999336 C9.94612891,30.5999336 10.2,30.3460625 10.2,30.0332891 L10.2,1.13328906 L23.8,1.13328906 L23.8,30.0332891 C23.8,30.3460625 24.0538711,30.5999336 24.3666445,30.5999336 C24.679418,30.5999336 24.9332891,30.3460625 24.9332891,30.0332891 L24.9332891,0.566644531 C24.9333555,0.253871094 24.6794844,0 24.3666445,0 Z" id="Path"></path>
                        </g>
                    </g>
                </g>
            </g>
        </g>
    </g>
</svg>