<svg xmlns="http://www.w3.org/2000/svg" width="18" height="19" viewBox="0 0 18 19">
    <g fill="#FFB500" fill-rule="evenodd">
        <path fill-rule="nonzero" d="M17.496 13.924l-3.637-2.426a1.061 1.061 0 0 0-1.42.231l-1.06 1.362a.453.453 0 0 1-.58.122l-.202-.11c-.668-.365-1.5-.818-3.174-2.493C5.748 8.934 5.294 8.103 4.93 7.436l-.11-.202a.453.453 0 0 1 .12-.582l1.36-1.06c.436-.34.536-.96.231-1.42L4.106.534a1.056 1.056 0 0 0-1.423-.32l-1.52.913c-.479.28-.83.736-.98 1.27-.547 1.994-.135 5.438 4.938 10.511 4.035 4.035 7.04 5.12 9.104 5.12.475.002.949-.06 1.407-.183.534-.15.99-.5 1.27-.979l.914-1.52a1.056 1.056 0 0 0-.32-1.423zM17.3 15.04l-.912 1.521a1.547 1.547 0 0 1-.913.708c-1.842.506-5.06.087-9.93-4.783S.255 4.398.762 2.556a1.55 1.55 0 0 1 .708-.915L2.99.73a.458.458 0 0 1 .619.139l1.317 1.978 1.106 1.658a.46.46 0 0 1-.1.617L4.57 6.18c-.414.317-.532.89-.277 1.345l.108.196c.383.702.858 1.575 2.595 3.312 1.737 1.737 2.61 2.212 3.312 2.595l.196.108a1.048 1.048 0 0 0 1.345-.277l1.06-1.362a.461.461 0 0 1 .616-.1l3.636 2.426a.458.458 0 0 1 .14.617z"/>
        <path d="M10.181 3.059a5.096 5.096 0 0 1 5.09 5.09.3.3 0 1 0 .599 0 5.695 5.695 0 0 0-5.689-5.69.3.3 0 1 0 0 .6z"/>
        <path d="M10.181 4.855a3.297 3.297 0 0 1 3.294 3.294.3.3 0 0 0 .598 0 3.897 3.897 0 0 0-3.892-3.893.3.3 0 1 0 0 .6z"/>
        <path d="M10.181 6.652c.826 0 1.496.67 1.497 1.497a.3.3 0 0 0 .599 0 2.098 2.098 0 0 0-2.096-2.096.3.3 0 1 0 0 .599z"/>
    </g>
</svg>
