<svg xmlns="http://www.w3.org/2000/svg" width="36" height="36" viewBox="0 0 36 36">
    <g fill="none" fill-rule="nonzero">
        <circle cx="18" cy="18" r="18" fill="#FEF2D5"/>
        <path fill="#FFB500" stroke="#FFB500" d="M25.552 22.32l-3.233-2.155a.944.944 0 0 0-1.263.205l-.942 1.211a.402.402 0 0 1-.516.109l-.179-.1c-.594-.323-1.332-.726-2.82-2.215-1.49-1.489-1.893-2.228-2.217-2.821l-.098-.18a.403.403 0 0 1 .106-.517l1.21-.941a.944.944 0 0 0 .206-1.264L13.65 10.42a.939.939 0 0 0-1.265-.285l-1.352.812c-.425.25-.736.654-.87 1.128-.486 1.774-.12 4.835 4.389 9.344 3.587 3.587 6.257 4.552 8.092 4.552.423.001.844-.054 1.251-.164a1.905 1.905 0 0 0 1.129-.87l.813-1.35a.939.939 0 0 0-.285-1.266zm-.174.994l-.81 1.351c-.18.307-.471.533-.813.63-1.637.45-4.498.077-8.826-4.252-4.33-4.329-4.702-7.19-4.252-8.827.097-.342.323-.633.63-.813l1.352-.81a.407.407 0 0 1 .549.123l1.17 1.758.984 1.474a.41.41 0 0 1-.09.548l-1.21.942a.931.931 0 0 0-.246 1.195l.096.175c.34.624.763 1.4 2.307 2.944 1.544 1.543 2.32 1.966 2.943 2.306l.175.097a.932.932 0 0 0 1.196-.247l.941-1.21a.41.41 0 0 1 .548-.09l3.233 2.157c.181.12.235.362.123.549z"/>
    </g>
</svg>
