<svg xmlns="http://www.w3.org/2000/svg" width="26" height="26" viewBox="0 0 26 26">
    <g fill="none" fill-rule="evenodd">
        <path fill="#26A6D1" d="M12.97 0c7.163 0 12.97 5.807 12.97 12.97s-5.807 12.97-12.97 12.97C5.806 25.94 0 20.132 0 12.97S5.806 0 12.97 0z"/>
        <path fill="#FFF" d="M21.078 8.738a6.458 6.458 0 0 1-1.816.483 3.093 3.093 0 0 0 1.39-1.698 6.408 6.408 0 0 1-2.007.745 3.202 3.202 0 0 0-2.307-.968c-1.745 0-3.16 1.373-3.16 3.067 0 .24.028.475.082.7A9.066 9.066 0 0 1 6.746 7.86a2.98 2.98 0 0 0-.428 1.542c0 1.064.558 2.004 1.406 2.553a3.214 3.214 0 0 1-1.433-.385v.04c0 1.486 1.09 2.725 2.536 3.007a3.268 3.268 0 0 1-1.427.053c.402 1.22 1.57 2.106 2.953 2.13a6.461 6.461 0 0 1-3.926 1.314c-.255 0-.506-.015-.754-.043 1.4.87 3.06 1.379 4.845 1.379 5.814 0 8.993-4.676 8.993-8.729l-.009-.397a6.308 6.308 0 0 0 1.576-1.587z"/>
    </g>
</svg>
