<svg xmlns="http://www.w3.org/2000/svg" width="36" height="36" viewBox="0 0 36 36">
    <g fill="none" fill-rule="evenodd">
        <circle cx="18" cy="18" r="18" fill="#FEF2D5" fill-rule="nonzero"/>
        <g fill="#FFB500" stroke="#FFB500">
            <path fill-rule="nonzero" d="M26.1 11.026H9.9a.9.9 0 0 0-.9.9v12a.9.9 0 0 0 .9.9h16.2a.9.9 0 0 0 .9-.9v-12a.9.9 0 0 0-.9-.9zm.3 12.9a.3.3 0 0 1-.3.3H9.9a.3.3 0 0 1-.3-.3v-12a.3.3 0 0 1 .3-.3h16.2a.3.3 0 0 1 .3.3v12z"/>
            <path d="M25.526 12.227a.3.3 0 0 0-.219.069l-6.92 5.814a.6.6 0 0 1-.773 0l-6.921-5.814a.3.3 0 0 0-.386.46l6.921 5.813a1.198 1.198 0 0 0 1.544 0l6.92-5.813a.3.3 0 0 0-.166-.53zM14.77 18.528a.3.3 0 0 0-.29.093l-4.2 4.5a.3.3 0 1 0 .44.41l4.2-4.5a.3.3 0 0 0-.15-.503zM21.52 18.621a.3.3 0 1 0-.44.41l4.2 4.5a.3.3 0 0 0 .44-.41l-4.2-4.5z"/>
        </g>
    </g>
</svg>
