<svg xmlns="http://www.w3.org/2000/svg" width="14" height="20" viewBox="0 0 14 20">
    <g fill="#FFB500" fill-rule="nonzero">
        <path d="M7.02 4.308A2.516 2.516 0 0 0 4.508 6.82 2.516 2.516 0 0 0 7.02 9.333a2.516 2.516 0 0 0 2.513-2.512A2.516 2.516 0 0 0 7.02 4.308zm0 4.307c-.99 0-1.794-.805-1.794-1.794 0-.99.805-1.795 1.794-1.795.99 0 1.795.805 1.795 1.795 0 .99-.805 1.794-1.795 1.794z"/>
        <path d="M11.825 2.016A6.84 6.84 0 0 0 6.957 0a6.839 6.839 0 0 0-4.868 2.016C-.317 4.422-.616 8.95 1.442 11.691l5.515 7.965 5.507-7.953c2.066-2.754 1.767-7.28-.64-9.687zm.057 9.267l-4.925 7.112-4.933-7.123C.158 8.783.425 4.695 2.597 2.524A6.125 6.125 0 0 1 6.957.718c1.647 0 3.195.641 4.36 1.806 2.172 2.171 2.44 6.26.565 8.759z"/>
    </g>
</svg>
