<?xml version="1.0" encoding="UTF-8"?>
<svg width="70px" height="70px" viewBox="0 0 70 70" version="1.1" xmlns="http://www.w3.org/2000/svg" xmlns:xlink="http://www.w3.org/1999/xlink">
    <!-- Generator: Sketch 52.2 (67145) - http://www.bohemiancoding.com/sketch -->
    <title>renewable-icon</title>
    <desc>Created with Sketch.</desc>
    <g id="Page-1" stroke="none" stroke-width="1" fill="none" fill-rule="evenodd">
        <g id="01-IDSPL-home" transform="translate(-494.000000, -915.000000)">
            <g id="services" transform="translate(170.000000, 844.000000)">
                <g id="Group-5-Copy" transform="translate(323.000000, 71.000000)">
                    <g id="renewable-icon" transform="translate(1.000000, 0.000000)">
                        <circle id="Oval" fill="#F6F5F2" fill-rule="nonzero" cx="35" cy="35" r="35"></circle>
                        <g id="renewable-energy" transform="translate(17.000000, 17.000000)" fill="#535962">
                            <path d="M1.20002344,18 C1.20002344,8.73660938 8.73597656,1.20002344 18,1.20002344 C23.2001719,1.20002344 28.0662187,3.64865625 31.2342188,7.80004688 L27.6000469,7.80004688 C27.2682422,7.80004688 27.0000703,8.06885156 27.0000703,8.40002344 C27.0000703,8.73119531 27.2682422,9 27.6000469,9 L32.4,9 C32.4185625,9 32.4348047,8.991 32.4528047,8.98917188 C32.4930234,8.98614844 32.5307812,8.97714844 32.5698047,8.96575781 C32.6100234,8.95373437 32.6460234,8.93939063 32.6820234,8.920125 C32.6981953,8.91175781 32.7161953,8.91049219 32.7318047,8.89973437 C32.7486094,8.88890625 32.7576094,8.87153906 32.7725859,8.85895312 C32.805,8.83314844 32.8331953,8.80495312 32.859,8.77317187 C32.8829766,8.74314844 32.904,8.71319531 32.9214375,8.68014844 C32.9394375,8.64653906 32.9532187,8.61292969 32.9640469,8.57636719 C32.9766328,8.53678125 32.9850703,8.49839063 32.9880234,8.45634375 C32.9904141,8.43714844 33.0000469,8.41971094 33.0000469,8.39995312 L33.0000469,3.6 C33.0000469,3.26882813 32.731875,3.00002344 32.4000703,3.00002344 C32.0682656,3.00002344 31.8000937,3.26882813 31.8000937,3.6 L31.8000937,6.58919531 C28.4033672,2.43717187 23.3699766,0 18,0 C8.07482812,0 0,8.07482812 0,18 C0,19.9098281 0.297,21.7883672 0.882632813,23.5835859 C0.964828125,23.8374141 1.20065625,23.9982187 1.45321875,23.9982187 C1.51439063,23.9982187 1.57739062,23.9880234 1.63919531,23.9681953 C1.95419531,23.8649766 2.12639062,23.5265625 2.02380469,23.2116328 C1.47719531,21.5363672 1.20002344,19.7831953 1.20002344,18 Z" id="Path"></path>
                            <path d="M15.9731719,29.9555859 C16.047,29.9856094 16.1237813,29.9999531 16.2,29.9999531 C16.3973672,29.9999531 16.5888281,29.9015859 16.7028047,29.7275625 L25.7028047,15.9275391 C25.8330234,15.7283437 25.8323906,15.4709297 25.7021719,15.2717344 C25.5713906,15.0725391 25.335,14.9675625 25.1015625,15.0083437 L18.7379297,16.0685156 L20.3903438,6.70429687 C20.4407578,6.41932031 20.2811484,6.139125 20.0099531,6.03766406 C19.7405859,5.93746875 19.4345859,6.04307812 19.2857344,6.29085937 L10.2857344,21.2908359 C10.1645156,21.4918594 10.1723203,21.7438594 10.3043672,21.9376406 C10.4357813,22.1308594 10.6685859,22.2298594 10.8983672,22.1914687 L17.2409766,21.1348828 L15.6113438,29.2822734 C15.5555859,29.5643672 15.7068281,29.8470234 15.9731719,29.9555859 Z M11.9832188,20.7947812 L18.6450469,9.69060937 L17.4096563,16.6956328 C17.3754844,16.8876562 17.4366562,17.0838281 17.5734844,17.2224141 C17.710875,17.361 17.9064844,17.4246328 18.0985078,17.3915859 L23.9515313,16.4165625 L17.3995313,26.4623906 L18.5881641,20.5176094 C18.6271875,20.3243906 18.5683359,20.1246328 18.4315781,19.9823906 C18.3169688,19.8647578 18.1615781,19.8 18.0002109,19.8 C17.9672344,19.8 17.9348203,19.8023906 17.9018438,19.8083672 L11.9832188,20.7947812 Z" id="Shape" fill-rule="nonzero"></path>
                            <path d="M35.0831953,12.3138281 C34.9782188,11.9994609 34.6398047,11.8290234 34.3236094,11.9346328 C34.0098047,12.0390469 33.8394375,12.3786563 33.9437813,12.6930234 C34.5119766,14.3982422 34.7999766,16.1838281 34.7999766,18 C34.7999766,27.2633906 27.2639531,34.7999766 18,34.7999766 C12.8010234,34.7999766 7.93497656,32.3519766 4.76578125,28.1999531 L8.39995313,28.1999531 C8.73175781,28.1999531 8.99992969,27.9311484 8.99992969,27.5999766 C8.99992969,27.2688047 8.73175781,27 8.39995313,27 L3.6,27 C3.582,27 3.56582812,27.009 3.54839062,27.0108281 C3.50760937,27.0138516 3.46858594,27.0228516 3.42836719,27.0348047 C3.38934375,27.0468281 3.35334375,27.0606094 3.31797656,27.0791719 C3.30236719,27.0881719 3.28436719,27.0893672 3.26819531,27.1001953 C3.25139062,27.1110234 3.24239062,27.1283906 3.22741406,27.1409766 C3.195,27.1667812 3.16680469,27.1949766 3.141,27.2267578 C3.11702344,27.2567812 3.096,27.2867344 3.07863281,27.3197812 C3.06063281,27.3533906 3.04685156,27.387 3.03602344,27.4241953 C3.0234375,27.4632187 3.015,27.5016094 3.01141406,27.5430234 C3.00958594,27.5628516 3.00002344,27.5796562 3.00002344,27.6000469 L3.00002344,32.4 C3.00002344,32.7311719 3.26819531,32.9999766 3.6,32.9999766 C3.93180469,32.9999766 4.19997656,32.7311719 4.19997656,32.4 L4.19997656,29.4096094 C7.59719531,33.5628281 12.6305859,36 18,36 C27.9251719,36 36,27.9251719 36,18 C36,16.0548047 35.6909766,14.1413906 35.0831953,12.3138281 Z" id="Path"></path>
                        </g>
                    </g>
                </g>
            </g>
        </g>
    </g>
</svg>