<svg viewBox="0 0 96 96" xmlns="http://www.w3.org/2000/svg" xmlns:xlink="http://www.w3.org/1999/xlink" id="Icons_SolarPanels" overflow="hidden"><rect x="4" y="17.885" width="5" height="2"/><path d="M10.835 14.227 7.364 10.674 8.778 9.227 12.249 12.779 10.835 14.227Z"/><circle cx="17" cy="19" r="6"/><rect x="16" y="5.885" width="2" height="5"/><rect x="25" y="17.885" width="5" height="2"/><path d="M23.165 14.227 26.636 10.674 25.222 9.227 21.751 12.779 23.165 14.227Z"/><path d="M10.835 23.658 7.364 27.211 8.778 28.658 12.249 25.106 10.835 23.658Z"/><rect x="16" y="27" width="2" height="5"/><path d="M23.165 23.658 26.636 27.211 25.222 28.658 21.751 25.106 23.165 23.658Z"/><path d="M45.751 49.395 62.849 49.395 61.616 39.781 46.984 39.781 45.751 49.395Z"/><path d="M65.135 35.781 79.318 35.781 75.506 27.309 64.049 27.309 65.135 35.781Z"/><path d="M66.881 49.395 85.445 49.395 81.119 39.781 65.648 39.781 66.881 49.395Z"/><path d="M67.394 53.395 68.76 64.056 91.999 64.056 91.999 63.961 92 63.961 87.245 53.395 67.394 53.395Z"/><path d="M47.496 35.781 61.103 35.781 60.017 27.309 48.582 27.309 47.496 35.781Z"/><path d="M91.999 74.434 91.999 68.056 16.6 68.056 16.6 74.434 51.3 74.434 51.3 84 40.686 84 40.686 90 67.913 90 67.913 84 57.3 84 57.3 74.434 91.999 74.434Z"/><path d="M41.719 49.395 42.952 39.781 27.482 39.781 23.156 49.395 41.719 49.395Z"/><path d="M64.728 64.056 63.362 53.395 45.239 53.395 43.872 64.056 64.728 64.056Z"/><path d="M39.84 64.056 41.206 53.395 21.356 53.395 16.6 63.961 16.6 64.056 39.84 64.056Z"/><path d="M43.464 35.781 44.55 27.309 33.095 27.309 29.282 35.781 43.464 35.781Z"/></svg>